<svg xmlns="http://www.w3.org/2000/svg" viewBox="0 0 1600 800" role="img" aria-label="stylized world map">
  <defs>
    <linearGradient id="land" x1="0" x2="1" y1="0" y2="1">
      <stop offset="0" stop-color="#8ecbff" stop-opacity="0.38"/>
      <stop offset="1" stop-color="#2f7dff" stop-opacity="0.18"/>
    </linearGradient>
    <filter id="glow" x="-20%" y="-20%" width="140%" height="140%">
      <feGaussianBlur stdDeviation="3" result="blur"/>
      <feMerge><feMergeNode in="blur"/><feMergeNode in="SourceGraphic"/></feMerge>
    </filter>
  </defs>
  <rect width="1600" height="800" fill="none"/>
  <g stroke="#9bd0ff" stroke-opacity="0.13" stroke-width="1">
    <path d="M0 400H1600M800 0V800"/>
    <path d="M0 250H1600M0 550H1600M300 0V800M600 0V800M1000 0V800M1300 0V800"/>
  </g>
  <g fill="url(#land)" stroke="#9bd0ff" stroke-opacity="0.42" stroke-width="2" filter="url(#glow)">
    <path d="M115 238c42-63 126-107 219-104 71 2 105 31 160 34 54 3 98-19 133 12 25 23 18 59-12 79-31 20-70 15-91 43-20 27 8 62-18 88-25 25-67 3-96 19-34 18-14 70-54 88-34 15-71-16-93-44-33-41-43-91-80-113-47-28-101-32-94-75 2-10 10-20 26-27z"/>
    <path d="M418 464c42 5 85 42 83 92-1 48-43 78-55 121-9 33 5 67-18 76-32 13-85-50-92-118-8-79 31-180 82-171z"/>
    <path d="M470 100c60-35 137-30 176 7 31 30 5 72-52 81-66 10-154-9-166-43-5-14 10-30 42-45z"/>
    <path d="M720 218c55-58 159-67 237-38 51 19 88 18 137-5 71-34 171-24 234 26 64 51 58 120-10 142-51 17-100-9-147 14-55 28-36 103-93 122-49 16-76-36-133-28-62 9-85 73-139 56-54-18-43-91-83-126-51-45-55-106-3-163z"/>
    <path d="M795 410c81 8 132 59 140 129 7 62-37 122-90 128-43 5-56-45-96-74-40-28-93-18-108-62-18-54 75-129 154-121z"/>
    <path d="M1092 394c58-20 126-5 167 36 37 37 36 88-4 113-43 27-103 2-141 26-29 18-29 58-63 63-52 8-96-79-75-146 15-48 56-72 116-92z"/>
    <path d="M1278 480c65-38 166-16 190 47 22 58-32 115-106 121-75 6-155-39-160-96-3-31 23-54 76-72z"/>
    <path d="M1335 252c55-11 108 11 123 49 12 32-12 63-53 70-45 8-96-10-114-43-18-34-5-66 44-76z"/>
  </g>
  <g fill="#d8ecff" fill-opacity="0.70">
    <circle cx="292" cy="295" r="2"/><circle cx="386" cy="315" r="2"/><circle cx="453" cy="366" r="2"/><circle cx="421" cy="534" r="2"/>
    <circle cx="762" cy="285" r="2"/><circle cx="831" cy="300" r="2"/><circle cx="883" cy="338" r="2"/><circle cx="940" cy="355" r="2"/>
    <circle cx="915" cy="475" r="2"/><circle cx="1018" cy="424" r="2"/><circle cx="1118" cy="332" r="2"/><circle cx="1192" cy="300" r="2"/>
    <circle cx="1328" cy="552" r="2"/><circle cx="1400" cy="525" r="2"/>
  </g>
</svg>
